<?xml version="1.0" encoding="UTF-8"?>
<svg width="16px" height="16px" viewBox="0 0 16 16" version="1.1" xmlns="http://www.w3.org/2000/svg" xmlns:xlink="http://www.w3.org/1999/xlink">
    <!-- Generator: Sketch 50.2 (55047) - http://www.bohemiancoding.com/sketch -->
    <title>操作-保存</title>
    <desc>Created with Sketch.</desc>
    <defs></defs>
    <g id="Page-1" stroke="none" stroke-width="1" fill="none" fill-rule="evenodd">
        <g id="运营数据上传－酒店" transform="translate(-1189.000000, -208.000000)" fill="#FFFFFF" fill-rule="nonzero">
            <g id="输入" transform="translate(260.000000, 169.000000)">
                <g id="保存" transform="translate(910.000000, 30.000000)">
                    <g id="操作-保存" transform="translate(19.000000, 9.000000)">
                        <g id="Group-2">
                            <path d="M3.42857143,1.14285714 L1.71428571,1.14285714 C1.39869443,1.14285714 1.14285714,1.39869443 1.14285714,1.71428571 L1.14285714,14.2857143 C1.14285714,14.6013056 1.39869443,14.8571429 1.71428571,14.8571429 L14.2857143,14.8571429 C14.6013056,14.8571429 14.8571429,14.6013056 14.8571429,14.2857143 L14.8571429,1.71428571 C14.8571429,1.39869443 14.6013056,1.14285714 14.2857143,1.14285714 L12.5714286,1.14285714 L12.5714286,6.85714286 C12.5714286,7.48832543 12.059754,8 11.4285714,8 L4.57142857,8 C3.940246,8 3.42857143,7.48832543 3.42857143,6.85714286 L3.42857143,1.14285714 Z M1.14285714,0 L14.8571429,0 C15.4883254,0 16,0.511674572 16,1.14285714 L16,14.8571429 C16,15.4883254 15.4883254,16 14.8571429,16 L1.14285714,16 C0.511674572,16 0,15.4883254 0,14.8571429 L0,1.14285714 C-1.26882631e-16,0.511674572 0.511674572,0 1.14285714,0 Z M4.57142857,1.14285714 L4.57142857,6.28571429 C4.57142857,6.60130557 4.82726586,6.85714286 5.14285714,6.85714286 L10.8571429,6.85714286 C11.1727341,6.85714286 11.4285714,6.60130557 11.4285714,6.28571429 L11.4285714,1.14285714 L4.57142857,1.14285714 Z M9.71428571,2.28571429 C10.029877,2.28571429 10.2857143,2.54155157 10.2857143,2.85714286 L10.2857143,5.14285714 C10.2857143,5.45844843 10.029877,5.71428571 9.71428571,5.71428571 C9.39869443,5.71428571 9.14285714,5.45844843 9.14285714,5.14285714 L9.14285714,2.85714286 C9.14285714,2.54155157 9.39869443,2.28571429 9.71428571,2.28571429 Z" id="Shape"></path>
                        </g>
                    </g>
                </g>
            </g>
        </g>
    </g>
</svg>