<?xml version="1.0" encoding="UTF-8"?>
<svg width="74px" height="74px" viewBox="0 0 74 74" version="1.1" xmlns="http://www.w3.org/2000/svg" xmlns:xlink="http://www.w3.org/1999/xlink">
    <!-- Generator: Sketch 50.2 (55047) - http://www.bohemiancoding.com/sketch -->
    <title>当前项目无历史数据</title>
    <desc>Created with Sketch.</desc>
    <defs></defs>
    <g id="Page-1" stroke="none" stroke-width="1" fill="none" fill-rule="evenodd">
        <g id="当前项目无历史数据-copy" transform="translate(-798.000000, -435.000000)" fill="#F5A623" fill-rule="nonzero">
            <g id="弹框" transform="translate(769.000000, 435.000000)">
                <g id="Group" transform="translate(29.000000, 0.000000)">
                    <g id="成功-(1)">
                        <path d="M36.9552572,5.45503511e-05 C57.5390339,-0.0345608892 74.0018922,16.4093067 74,37.0024656 C73.9981078,57.5960048 57.5322218,74.0387312 36.9503374,73.9999315 C16.4142451,73.9615121 0.0675702681,57.6336633 0.000206557159,37.0922375 C-0.0671571538,16.5139139 16.350666,0.0350504038 36.9552572,5.45503511e-05 Z M69.1842516,38.201454 C69.8404801,21.3946946 56.9683346,5.66672036 38.2885289,4.82377672 C20.9771905,4.0428366 5.57928428,17.5082527 4.82428089,35.7996732 C4.13058602,52.6090954 17.0375488,68.3340264 35.7124347,69.1765897 C53.0131765,69.9571494 68.3921603,56.5012432 69.1842516,38.201454 Z" id="Shape"></path>
                        <path d="M20.7602608,36.7007851 C24.352896,39.513966 27.8350594,42.2407093 31.3329497,44.9795311 C38.5822785,35.6114466 48.3222094,29.1354312 57.654392,22 C58.1143076,22.6050623 58.5243575,23.1444471 59,23.7695145 C47.9386268,33.0179453 40.6490218,44.8878092 34.3693901,57 C28.362102,51.3977956 22.2800153,45.7253845 16,39.8683972 C17.840046,38.6443069 19.2274645,37.7206717 20.7602608,36.7007851 Z" id="Shape"></path>
                    </g>
                </g>
            </g>
        </g>
    </g>
</svg>