<?xml version="1.0" encoding="UTF-8"?>
<svg width="54px" height="54px" viewBox="0 0 54 54" version="1.1" xmlns="http://www.w3.org/2000/svg" xmlns:xlink="http://www.w3.org/1999/xlink">
    <!-- Generator: Sketch 50.2 (55047) - http://www.bohemiancoding.com/sketch -->
    <title>弹框</title>
    <desc>Created with Sketch.</desc>
    <defs></defs>
    <g id="Page-1" stroke="none" stroke-width="1" fill="none" fill-rule="evenodd">
        <g id="新增授权账号-复制成功弹窗提示" transform="translate(-818.000000, -474.000000)" fill-rule="nonzero">
            <g id="弹框" transform="translate(230.000000, 90.000000)">
                <g transform="translate(385.000000, 334.000000)" id="Group">
                    <g transform="translate(203.000000, 50.000000)">
                        <g id="icon">
                            <path d="M29.1595925,26 L12.8772233,26 C11.9071288,26 11.0750934,26.7 11.0051435,27.6193333 C10.9669046,28.1048445 11.1431466,28.5835532 11.4915174,28.9404231 C11.8398883,29.2972931 12.3288931,29.5000608 12.8410211,29.5 L29.1227767,29.5 C30.0928712,29.5 30.9249066,28.8 30.9948565,27.8806667 C31.0330874,27.3952567 30.856927,26.9166414 30.5086912,26.5597907 C30.1604555,26.2029399 29.6716138,26.0001015 29.1595925,26 Z M29.1595925,36.5 L12.8772233,36.5 C11.9071288,36.5 11.0750934,37.2 11.0051435,38.1193333 C10.9669046,38.6048445 11.1431466,39.0835532 11.4915174,39.4404231 C11.8398883,39.797293 12.3288931,40.0000607 12.8410211,40 L29.1227767,40 C30.0928712,40 30.9249066,39.3 30.9948565,38.3806667 C31.0330874,37.8952567 30.856927,37.4166414 30.5086912,37.0597906 C30.1604555,36.7029399 29.6716138,36.5001015 29.1595925,36.5 Z" id="Shape" fill="#445870"></path>
                            <path d="M17.965974,2 C16.8811287,1.9999992 16.0013182,2.88297808 16,3.97305371 L16,12.5567283 L36.5435922,12.5567283 C39.1821765,12.5567283 41.3211718,14.7060379 41.3211718,17.3573456 L41.3211718,38 L50.034026,38 C51.1198035,38 52,37.1155591 52,36.024546 L52,3.97305371 C51.9986818,2.88297808 51.1188713,1.9999992 50.034026,2 L17.965974,2 Z" id="Shape" fill="#3B5EFE" opacity="0.293415179"></path>
                            <path d="M48.3999107,0 L18.0152679,0 C14.9233651,-2.86482055e-07 12.4165096,2.50577615 12.4151786,5.59767857 L12.4151786,12.4151786 L4.82142857,12.4151786 C2.1586271,12.4151786 8.56457762e-16,14.5738057 0,17.2366071 L0,49.1785714 C8.56457762e-16,51.8413729 2.1586271,54 4.82142857,54 L36.7633929,54 C39.4261943,54 41.5848214,51.8413729 41.5848214,49.1785714 L41.5848214,41.5848214 L48.3999107,41.5848214 C51.4927546,41.5848214 54,39.0775761 54,35.9847321 L54,5.59767857 C53.998669,2.50577615 51.4918134,-2.86482058e-07 48.3999107,0 Z M50.3839286,35.9847321 C50.3839286,37.0804749 49.4956535,37.96875 48.3999107,37.96875 L41.5848214,37.96875 L41.5848214,17.2366071 C41.5848214,14.5738057 39.4261943,12.4151786 36.7633929,12.4151786 L16.03125,12.4151786 L16.03125,5.59767857 C16.03125,4.50193577 16.9195251,3.61366071 18.0152679,3.61366071 L48.3999107,3.61366071 C49.4956535,3.61366071 50.3839286,4.50193577 50.3839286,5.59767857 L50.3839286,35.9847321 Z M37.96875,49.1785714 C37.9667643,49.8434476 37.428269,50.3819429 36.7633929,50.3839286 L4.82142857,50.3839286 C4.1557282,50.3839286 3.61607143,49.8442718 3.61607143,49.1785714 L3.61607143,17.2366071 C3.61607143,16.5709068 4.1557282,16.03125 4.82142857,16.03125 L36.7633929,16.03125 C37.4290932,16.03125 37.96875,16.5709068 37.96875,17.2366071 L37.96875,49.1785714 Z" id="Shape" fill="#445870"></path>
                        </g>
                    </g>
                </g>
            </g>
        </g>
    </g>
</svg>